<?xml version="1.0" encoding="iso-8859-1"?>
<!-- Generator: Adobe Illustrator 19.0.0, SVG Export Plug-In . SVG Version: 6.00 Build 0)  -->
<svg version="1.1" id="Layer_1" xmlns="http://www.w3.org/2000/svg" xmlns:xlink="http://www.w3.org/1999/xlink" x="0px" y="0px"
	 viewBox="0 0 512 512" style="enable-background:new 0 0 512 512;" xml:space="preserve">
<g>
	<g>
		<path d="M478.189,0H33.811c-5.335,0-9.66,4.321-9.66,9.66v154.566v154.566v144.906v9.66V512h19.321v-28.981h425.057V512h19.321
			v-38.641v-9.66V318.792V164.226V9.66C487.849,4.321,483.524,0,478.189,0z M468.528,463.698h-38.403l-21.884-98.472l-18.863,4.198
			l20.952,94.274h-19.084v-48.302h-19.321v48.302h-9.66v-48.302h-19.321v48.302h-9.66v-48.302h-19.321v48.302h-9.66v-86.943h-19.321
			v86.943H265.79l10.988-65.906l-19.057-3.17l-11.515,69.076h-9.527v-48.302h-19.321v48.302h-19.321v-77.283h-19.321v77.283H43.472
			V328.453h425.057V463.698z M468.528,309.132h-96.604v-77.283h-19.321v77.283h-19.321V260.83h-19.321v48.302h-9.527l-11.515-69.076
			l-19.057,3.17l10.987,65.906h-19.19v-86.943H246.34v86.943h-9.66V260.83h-19.321v48.302h-9.66V260.83h-19.321v48.302h-9.66V260.83
			h-19.321v48.302h-19.024l21.08-84.311l-18.745-4.689l-22.252,89H43.472V173.887h425.057V309.132z M468.528,154.566H265.794
			L254.278,85.49l-19.057,3.17l10.987,65.906h-19.19V57.962h-19.321v96.604h-9.66V77.283h-19.321v77.283h-9.66V77.283h-19.321
			v77.283h-9.422l-21.884-98.472l-18.863,4.198l20.952,94.274H91.774V48.302H72.453v106.264H43.472V19.321h425.057V154.566z"/>
	</g>
</g>
<g>
</g>
<g>
</g>
<g>
</g>
<g>
</g>
<g>
</g>
<g>
</g>
<g>
</g>
<g>
</g>
<g>
</g>
<g>
</g>
<g>
</g>
<g>
</g>
<g>
</g>
<g>
</g>
<g>
</g>
</svg>
